<svg xmlns="http://www.w3.org/2000/svg" viewBox="0 0 640 360" role="img" aria-labelledby="title desc">
  <title id="title">Demo electrical panel photo</title>
  <desc id="desc">A clean circuit breaker panel used as sample evidence for the insurance intake demo.</desc>
  <rect width="640" height="360" fill="#dfe7ef"/>
  <rect x="92" y="42" width="456" height="276" rx="14" fill="#f8fafc" stroke="#64748b" stroke-width="6"/>
  <rect x="125" y="76" width="390" height="208" rx="8" fill="#e2e8f0"/>
  <rect x="288" y="92" width="64" height="176" rx="5" fill="#475569"/>
  <g fill="#0f172a">
    <rect x="154" y="101" width="104" height="18" rx="3"/>
    <rect x="154" y="135" width="104" height="18" rx="3"/>
    <rect x="154" y="169" width="104" height="18" rx="3"/>
    <rect x="154" y="203" width="104" height="18" rx="3"/>
    <rect x="154" y="237" width="104" height="18" rx="3"/>
    <rect x="382" y="101" width="104" height="18" rx="3"/>
    <rect x="382" y="135" width="104" height="18" rx="3"/>
    <rect x="382" y="169" width="104" height="18" rx="3"/>
    <rect x="382" y="203" width="104" height="18" rx="3"/>
    <rect x="382" y="237" width="104" height="18" rx="3"/>
  </g>
  <g fill="#38bdf8" opacity=".92">
    <rect x="160" y="105" width="42" height="10" rx="2"/>
    <rect x="388" y="105" width="42" height="10" rx="2"/>
    <rect x="160" y="173" width="42" height="10" rx="2"/>
    <rect x="388" y="207" width="42" height="10" rx="2"/>
  </g>
  <rect x="382" y="292" width="134" height="18" rx="4" fill="#cbd5e1"/>
  <rect x="132" y="292" width="160" height="18" rx="4" fill="#cbd5e1"/>
  <text x="320" y="338" text-anchor="middle" font-family="Arial, sans-serif" font-size="20" font-weight="700" fill="#334155">AI sample: electrical panel photo</text>
</svg>
